<svg width="254" height="83" viewBox="0 0 254 83" fill="none" xmlns="http://www.w3.org/2000/svg">
<g clip-path="url(#clip0_3874_1483)">
<path d="M41.5816 4.85669C42.3784 4.85669 43.03 5.48192 43.065 6.2722V6.52729C43.065 9.68343 41.5816 33.0469 41.5816 33.0469C41.5816 33.0469 40.0981 9.68343 40.0981 6.52729V6.2722C40.1332 5.48192 40.7847 4.85669 41.5816 4.85669Z" fill="white"/>
<path d="M55.6343 7.6427C56.371 7.94781 56.7318 8.77311 56.4612 9.51838L56.366 9.75347C55.1582 12.6695 44.8292 33.6871 44.8292 33.6871C44.8292 33.6871 52.4168 11.5341 53.6246 8.62306L53.7198 8.38797C54.0556 7.67271 54.8976 7.34259 55.6343 7.64771V7.6427Z" fill="white"/>
<path d="M67.5469 15.5906C68.1082 16.1509 68.1232 17.0562 67.592 17.6364L67.4116 17.8165C65.1764 20.0473 47.5755 35.5179 47.5755 35.5179C47.5755 35.5179 63.0765 17.9515 65.3117 15.7207L65.4921 15.5406C66.0735 15.0104 66.9806 15.0254 67.5469 15.5856V15.5906Z" fill="white"/>
<path d="M75.5054 27.4749C75.8111 28.2101 75.4803 29.0504 74.7637 29.3856L74.5281 29.4856C71.6063 30.691 49.4148 38.2638 49.4148 38.2638C49.4148 38.2638 70.4737 27.955 73.3955 26.7496L73.631 26.6546C74.3728 26.3845 75.2047 26.7446 75.5104 27.4799L75.5054 27.4749Z" fill="white"/>
<path d="M78.3019 41.4999C78.3019 42.2952 77.6754 42.9455 76.8836 42.9805H76.628C73.4656 42.9805 50.0563 41.4999 50.0563 41.4999C50.0563 41.4999 73.4656 40.0194 76.628 40.0194H76.8836C77.6754 40.0544 78.3019 40.7047 78.3019 41.4999Z" fill="white"/>
<path d="M46.2675 17.9965C47.0493 18.1516 47.5655 18.8968 47.4452 19.6721L47.4302 19.7472C47.2447 20.6875 44.338 27.67 44.338 27.67C44.338 27.67 44.328 20.1123 44.5184 19.1719L44.5334 19.0969C44.7239 18.3316 45.4806 17.8415 46.2675 17.9965Z" fill="white"/>
<path d="M49.8458 0.0299667C50.6276 0.185023 51.1438 0.92529 51.0235 1.70557L50.9984 1.83562C50.6777 3.4362 46.8137 15.2355 46.8137 15.2355C46.8137 15.2355 47.7659 2.86099 48.0867 1.26041L48.1117 1.13036C48.3022 0.365088 49.0589 -0.125089 49.8458 0.0299667Z" fill="white"/>
<path d="M54.9226 21.5777C55.5841 22.0179 55.7796 22.9032 55.3686 23.5785L55.3285 23.6435C54.7973 24.4388 49.4348 29.7807 49.4348 29.7807C49.4348 29.7807 52.3265 22.7932 52.8578 21.9979L52.9029 21.9329C53.369 21.2976 54.261 21.1376 54.9226 21.5777Z" fill="white"/>
<path d="M65.1213 6.34226C65.7828 6.78242 65.9782 7.66774 65.5673 8.34299L65.4971 8.45303C64.59 9.81352 56.4962 19.2319 56.4962 19.2319C56.4962 19.2319 62.1193 8.16292 63.0314 6.80743L63.1066 6.69739C63.5727 6.06216 64.4647 5.9021 65.1263 6.34226H65.1213Z" fill="white"/>
<path d="M61.5479 28.1902C61.989 28.8504 61.8286 29.7407 61.1921 30.2059L61.127 30.2509C60.3301 30.7811 53.3289 33.6722 53.3289 33.6722C53.3289 33.6722 58.6813 28.3202 59.4781 27.79L59.5433 27.75C60.2199 27.3399 61.1019 27.5349 61.5479 28.1952V28.1902Z" fill="white"/>
<path d="M76.8084 18.0065C77.2495 18.6667 77.0891 19.557 76.4526 20.0222L76.3424 20.0972C74.9792 21.0026 63.8934 26.6196 63.8934 26.6196C63.8934 26.6196 73.3354 18.5417 74.6935 17.6363L74.8038 17.5663C75.4803 17.1562 76.3624 17.3512 76.8084 18.0115V18.0065Z" fill="white"/>
<path d="M65.1313 36.8283C65.2867 37.6085 64.7955 38.3688 64.0287 38.5539L63.9536 38.5689C63.0114 38.754 55.4388 38.749 55.4388 38.749C55.4388 38.749 62.435 35.8479 63.3772 35.6628L63.4524 35.6478C64.2342 35.5278 64.9759 36.043 65.1313 36.8233V36.8283Z" fill="white"/>
<path d="M83.1381 33.252C83.2935 34.0322 82.8023 34.7925 82.0355 34.9776L81.9052 35.0026C80.3015 35.3227 67.9027 36.2731 67.9027 36.2731C67.9027 36.2731 79.7202 32.4167 81.3289 32.0965L81.4592 32.0715C82.241 31.9515 82.9827 32.4667 83.1381 33.247V33.252Z" fill="white"/>
<path d="M4.86633 41.4999C4.86633 40.7047 5.49279 40.0544 6.28463 40.0194H6.54022C9.70257 40.0194 33.1119 41.4999 33.1119 41.4999C33.1119 41.4999 9.70257 42.9805 6.54022 42.9805H6.28463C5.49279 42.9455 4.86633 42.2952 4.86633 41.4999Z" fill="white"/>
<path d="M7.65781 27.4749C7.96352 26.7396 8.79044 26.3795 9.53718 26.6496L9.77272 26.7446C12.6945 27.95 33.7534 38.2588 33.7534 38.2588C33.7534 38.2588 11.5569 30.686 8.64009 29.4806L8.40454 29.3856C7.68788 29.0504 7.35711 28.2101 7.66282 27.4749H7.65781Z" fill="white"/>
<path d="M15.6213 15.5907C16.1826 15.0304 17.0897 15.0154 17.6711 15.5456L17.8515 15.7257C20.0867 17.9565 35.5877 35.5229 35.5877 35.5229C35.5877 35.5229 17.9868 20.0523 15.7516 17.8215L15.5712 17.6414C15.0399 17.0612 15.055 16.1559 15.6163 15.5907H15.6213Z" fill="white"/>
<path d="M27.529 7.6427C28.2657 7.33759 29.1076 7.66771 29.4434 8.38297L29.5436 8.61805C30.7514 11.5341 38.3391 33.6821 38.3391 33.6821C38.3391 33.6821 28.0101 12.6645 26.8023 9.74846L26.7071 9.51338C26.4364 8.77311 26.7973 7.94281 27.534 7.6377L27.529 7.6427Z" fill="white"/>
<path d="M18.0319 36.8283C18.1873 36.048 18.934 35.5328 19.7108 35.6528L19.786 35.6678C20.7282 35.8529 27.7244 38.754 27.7244 38.754C27.7244 38.754 20.1518 38.764 19.2097 38.5739L19.1345 38.5589C18.3677 38.3688 17.8766 37.6135 18.0319 36.8283Z" fill="white"/>
<path d="M0.030084 33.252C0.185445 32.4717 0.927168 31.9565 1.70898 32.0765L1.83929 32.1016C3.44301 32.4217 15.2655 36.2781 15.2655 36.2781C15.2655 36.2781 2.86667 35.3277 1.26295 35.0076L1.13265 34.9826C0.365864 34.7925 -0.125277 34.0373 0.030084 33.252Z" fill="white"/>
<path d="M21.6202 28.1902C22.0612 27.5299 22.9483 27.3349 23.6249 27.745L23.69 27.785C24.4869 28.3152 29.8393 33.6672 29.8393 33.6672C29.8393 33.6672 22.838 30.7811 22.0412 30.2509L21.976 30.2059C21.3396 29.7407 21.1792 28.8504 21.6202 28.1902Z" fill="white"/>
<path d="M6.35478 18.0065C6.7958 17.3462 7.68286 17.1512 8.35943 17.5613L8.46969 17.6313C9.83285 18.5367 19.2698 26.6146 19.2698 26.6146C19.2698 26.6146 8.17901 21.0025 6.82086 20.0922L6.7106 20.0172C6.07412 19.552 5.91375 18.6617 6.35478 18.0015V18.0065Z" fill="white"/>
<path d="M28.2456 21.5777C28.9071 21.1376 29.7992 21.2976 30.2653 21.9329L30.3104 21.9979C30.8416 22.7932 33.7384 29.7807 33.7384 29.7807C33.7384 29.7807 28.3759 24.4388 27.8447 23.6435L27.8046 23.5785C27.3936 22.9032 27.5891 22.0229 28.2506 21.5777H28.2456Z" fill="white"/>
<path d="M18.0419 6.34226C18.7035 5.9021 19.5955 6.06216 20.0616 6.69739L20.1368 6.80743C21.0439 8.16792 26.672 19.2319 26.672 19.2319C26.672 19.2319 18.5782 9.80852 17.6711 8.45303L17.6009 8.34299C17.19 7.66774 17.3854 6.78742 18.0469 6.34226H18.0419Z" fill="white"/>
<path d="M36.9007 17.9964C37.6826 17.8413 38.4443 18.3315 38.6298 19.0968L38.6448 19.1718C38.8302 20.1122 38.8252 27.6699 38.8252 27.6699C38.8252 27.6699 35.9185 20.6874 35.733 19.747L35.718 19.672C35.5977 18.8917 36.1139 18.1515 36.8957 17.9964H36.9007Z" fill="white"/>
<path d="M33.3174 0.0299667C34.0992 -0.125089 34.861 0.365088 35.0464 1.13036L35.0715 1.26041C35.3923 2.86099 36.3445 15.2355 36.3445 15.2355C36.3445 15.2355 32.4805 3.4412 32.1597 1.83562L32.1347 1.70557C32.0144 0.92529 32.5306 0.185023 33.3124 0.0299667H33.3174Z" fill="white"/>
<path d="M41.5816 78.1482C40.7847 78.1482 40.1332 77.523 40.0981 76.7327V76.4776C40.0981 73.3215 41.5816 49.958 41.5816 49.958C41.5816 49.958 43.065 73.3215 43.065 76.4776V76.7327C43.03 77.523 42.3784 78.1482 41.5816 78.1482Z" fill="white"/>
<path d="M27.529 75.3573C26.7923 75.0522 26.4314 74.2269 26.702 73.4816L26.7973 73.2465C28.0051 70.3305 38.3341 49.3129 38.3341 49.3129C38.3341 49.3129 30.7464 71.4659 29.5386 74.3769L29.4434 74.612C29.1076 75.3273 28.2657 75.6574 27.529 75.3523V75.3573Z" fill="white"/>
<path d="M15.6213 67.4144C15.06 66.8542 15.0449 65.9489 15.5762 65.3686L15.7566 65.1886C17.9918 62.9578 35.5927 47.4872 35.5927 47.4872C35.5927 47.4872 20.0917 65.0535 17.8565 67.2843L17.6761 67.4644C17.0947 67.9946 16.1876 67.9796 15.6213 67.4194V67.4144Z" fill="white"/>
<path d="M7.65782 55.5251C7.35211 54.7898 7.68287 53.9495 8.39954 53.6144L8.63509 53.5144C11.5569 52.3089 33.7484 44.7362 33.7484 44.7362C33.7484 44.7362 12.6895 55.0449 9.76772 56.2504L9.53217 56.3454C8.79045 56.6155 7.95852 56.2554 7.65281 55.5201L7.65782 55.5251Z" fill="white"/>
<path d="M36.9007 65.0035C36.1189 64.8484 35.6027 64.1031 35.723 63.3278L35.738 63.2528C35.9235 62.3125 38.8302 55.33 38.8302 55.33C38.8302 55.33 38.8402 62.8877 38.6498 63.828L38.6348 63.9031C38.4443 64.6683 37.6876 65.1585 36.9007 65.0035Z" fill="white"/>
<path d="M33.3174 82.975C32.5356 82.82 32.0194 82.0797 32.1397 81.2994L32.1647 81.1694C32.4855 79.5688 36.3495 67.7695 36.3495 67.7695C36.3495 67.7695 35.3973 80.144 35.0765 81.7446L35.0515 81.8746C34.861 82.6399 34.1043 83.1301 33.3174 82.975Z" fill="white"/>
<path d="M28.2456 61.4272C27.5841 60.987 27.3886 60.1017 27.7996 59.4265L27.8397 59.3615C28.3709 58.5662 33.7334 53.2242 33.7334 53.2242C33.7334 53.2242 30.8416 60.2118 30.3104 61.0071L30.2653 61.0721C29.7992 61.7073 28.9072 61.8674 28.2456 61.4272Z" fill="white"/>
<path d="M18.0419 76.6577C17.3804 76.2176 17.185 75.3322 17.5959 74.657L17.6661 74.547C18.5732 73.1865 26.667 63.7681 26.667 63.7681C26.667 63.7681 21.0439 74.8371 20.1318 76.1926L20.0566 76.3026C19.5905 76.9378 18.6985 77.0979 18.0369 76.6577H18.0419Z" fill="white"/>
<path d="M21.6202 54.8147C21.1792 54.1545 21.3396 53.2642 21.976 52.799L22.0412 52.754C22.838 52.2238 29.8393 49.3328 29.8393 49.3328C29.8393 49.3328 24.4869 54.6847 23.69 55.2149L23.6249 55.2549C22.9483 55.6651 22.0663 55.47 21.6202 54.8097V54.8147Z" fill="white"/>
<path d="M6.35478 64.9935C5.91375 64.3332 6.07412 63.4429 6.7106 62.9778L6.82086 62.9027C8.18402 61.9974 19.2698 56.3804 19.2698 56.3804C19.2698 56.3804 9.82784 64.4583 8.46969 65.3636L8.35943 65.4336C7.68286 65.8438 6.80081 65.6487 6.35478 64.9885V64.9935Z" fill="white"/>
<path d="M18.0319 46.1767C17.8766 45.3964 18.3677 44.6361 19.1345 44.4511L19.2097 44.4361C20.1518 44.251 27.7244 44.256 27.7244 44.256C27.7244 44.256 20.7282 47.157 19.786 47.3421L19.7108 47.3571C18.929 47.4772 18.1873 46.962 18.0319 46.1817V46.1767Z" fill="white"/>
<path d="M0.030084 49.748C-0.125277 48.9677 0.365864 48.2075 1.13265 48.0224L1.26295 47.9974C2.86667 47.6773 15.2655 46.7269 15.2655 46.7269C15.2655 46.7269 3.44802 50.5833 1.83929 50.9034L1.70898 50.9284C0.927168 51.0485 0.185445 50.5333 0.030084 49.753V49.748Z" fill="white"/>
<path d="M75.5054 55.525C75.1997 56.2603 74.3728 56.6204 73.626 56.3503L73.3905 56.2553C70.4687 55.0498 49.4098 44.7411 49.4098 44.7411C49.4098 44.7411 71.6063 52.3138 74.5231 53.5193L74.7587 53.6143C75.4753 53.9494 75.8061 54.7897 75.5004 55.525H75.5054Z" fill="white"/>
<path d="M67.5469 67.4143C66.9856 67.9745 66.0785 67.9895 65.4972 67.4593L65.3168 67.2792C63.0816 65.0484 47.5806 47.4821 47.5806 47.4821C47.5806 47.4821 65.1814 62.9527 67.4166 65.1835L67.5971 65.3635C68.1283 65.9437 68.1133 66.8491 67.552 67.4143H67.5469Z" fill="white"/>
<path d="M55.6343 75.3572C54.8976 75.6623 54.0556 75.3321 53.7198 74.6169L53.6196 74.3818C52.4118 71.4658 44.8242 49.3177 44.8242 49.3177C44.8242 49.3177 55.1531 70.3353 56.361 73.2514L56.4562 73.4865C56.7268 74.2268 56.366 75.0571 55.6293 75.3622L55.6343 75.3572Z" fill="white"/>
<path d="M65.1313 46.1766C64.9759 46.9569 64.2292 47.4721 63.4524 47.3521L63.3772 47.3371C62.435 47.152 55.4388 44.2509 55.4388 44.2509C55.4388 44.2509 63.0114 44.2409 63.9536 44.431L64.0287 44.446C64.7955 44.6361 65.2867 45.3914 65.1313 46.1766Z" fill="white"/>
<path d="M83.1382 49.7479C82.9828 50.5282 82.2411 51.0434 81.4593 50.9233L81.329 50.8983C79.7252 50.5782 67.9028 46.7218 67.9028 46.7218C67.9028 46.7218 80.3016 47.6721 81.9053 47.9923L82.0356 48.0173C82.8024 48.2073 83.2935 48.9626 83.1382 49.7479Z" fill="white"/>
<path d="M61.548 54.8147C61.107 55.475 60.2199 55.6701 59.5433 55.2599L59.4782 55.2199C58.6813 54.6897 53.3289 49.3378 53.3289 49.3378C53.3289 49.3378 60.3302 52.2238 61.127 52.754L61.1922 52.799C61.8287 53.2642 61.989 54.1545 61.548 54.8147Z" fill="white"/>
<path d="M76.8084 64.9935C76.3674 65.6537 75.4803 65.8488 74.8038 65.4386L74.6935 65.3686C73.3304 64.4633 63.8934 56.3854 63.8934 56.3854C63.8934 56.3854 74.9842 61.9974 76.3424 62.9077L76.4526 62.9828C77.0891 63.4479 77.2495 64.3382 76.8084 64.9985V64.9935Z" fill="white"/>
<path d="M54.9226 61.4272C54.2611 61.8674 53.369 61.7073 52.9029 61.0721L52.8578 61.0071C52.3266 60.2118 49.4299 53.2242 49.4299 53.2242C49.4299 53.2242 54.7923 58.5662 55.3236 59.3615L55.3637 59.4265C55.7746 60.1017 55.5792 60.982 54.9176 61.4272H54.9226Z" fill="white"/>
<path d="M65.1213 76.6576C64.4598 77.0978 63.5677 76.9377 63.1016 76.3025L63.0265 76.1924C62.1193 74.8319 56.4913 63.7679 56.4913 63.7679C56.4913 63.7679 64.5851 73.1913 65.4922 74.5468L65.5623 74.6569C65.9733 75.3321 65.7778 76.2124 65.1163 76.6576H65.1213Z" fill="white"/>
<path d="M46.2675 65.0035C45.4857 65.1585 44.7239 64.6683 44.5385 63.9031L44.5234 63.828C44.338 62.8877 44.343 55.33 44.343 55.33C44.343 55.33 47.2498 62.3125 47.4352 63.2528L47.4502 63.3278C47.5705 64.1081 47.0543 64.8484 46.2725 65.0035H46.2675Z" fill="white"/>
<path d="M49.8458 82.9749C49.064 83.13 48.3022 82.6398 48.1168 81.8745L48.0917 81.7445C47.771 80.1439 46.8188 67.7694 46.8188 67.7694C46.8188 67.7694 50.6828 79.5637 51.0035 81.1692L51.0286 81.2993C51.1488 82.0796 50.6326 82.8198 49.8508 82.9749H49.8458Z" fill="white"/>
<path d="M102.553 38.504V39.2993C102.553 39.5443 102.388 39.7094 102.142 39.7094H93.387C93.1414 39.7094 92.976 39.5443 92.976 39.2993V20.9426C92.976 20.6975 93.1414 20.5325 93.387 20.5325H94.2941C94.5396 20.5325 94.705 20.6975 94.705 20.9426V38.0938H102.147C102.393 38.0938 102.558 38.2589 102.558 38.504H102.553Z" fill="white"/>
<path d="M103.596 30.201C103.596 24.694 107.986 20.3074 113.423 20.3074C118.861 20.3074 123.196 24.689 123.196 30.201C123.196 35.7129 118.831 40.0645 113.423 40.0645C108.016 40.0645 103.596 35.6829 103.596 30.201ZM121.552 30.201C121.552 25.5443 117.954 21.8729 113.428 21.8729C108.903 21.8729 105.249 25.5443 105.249 30.201C105.249 34.8576 108.848 38.4739 113.428 38.4739C118.009 38.4739 121.552 34.8026 121.552 30.201Z" fill="white"/>
<path d="M125.617 30.201C125.617 24.694 130.007 20.3074 135.445 20.3074C140.882 20.3074 145.217 24.689 145.217 30.201C145.217 35.7129 140.852 40.0645 135.445 40.0645C130.037 40.0645 125.617 35.6829 125.617 30.201ZM143.574 30.201C143.574 25.5443 139.975 21.8729 135.45 21.8729C130.924 21.8729 127.271 25.5443 127.271 30.201C127.271 34.8576 130.869 38.4739 135.45 38.4739C140.03 38.4739 143.574 34.8026 143.574 30.201Z" fill="white"/>
<path d="M160.814 39.7094H159.686C159.465 39.7094 159.33 39.6544 159.19 39.4643L151.858 29.7358L149.908 31.8466V39.2993C149.908 39.5443 149.743 39.7094 149.497 39.7094H148.59C148.345 39.7094 148.179 39.5443 148.179 39.2993V20.9426C148.179 20.6975 148.345 20.5325 148.59 20.5325H149.497C149.743 20.5325 149.908 20.6975 149.908 20.9426V29.5457L157.927 20.7526C158.062 20.5875 158.228 20.5325 158.423 20.5325H159.661C160.017 20.5325 160.127 20.7776 159.881 21.0277L152.935 28.5604L161.059 39.2192C161.25 39.4943 161.139 39.7144 160.814 39.7144V39.7094Z" fill="white"/>
<path d="M189.019 30.431V31.0913C189.019 36.2531 185.636 40.0695 180.164 40.0695C174.691 40.0695 170.511 35.6479 170.511 30.1059C170.511 24.5639 174.721 20.2773 180.138 20.2773C182.669 20.2773 184.814 21.3777 186.573 22.8283C186.764 22.9933 186.819 23.2134 186.598 23.4035L186.022 23.9787C185.802 24.1687 185.636 24.1437 185.446 23.9787C183.962 22.7432 182.253 21.9479 180.164 21.9479C175.818 21.9479 172.24 25.4642 172.24 30.1009C172.24 34.7376 175.733 38.3939 180.164 38.3939C184.263 38.3939 187.29 35.7029 187.425 31.6665H180.494C180.249 31.6665 180.083 31.5014 180.083 31.2563V30.431C180.083 30.1859 180.249 30.0209 180.494 30.0209H188.608C188.854 30.0209 189.019 30.1859 189.019 30.431Z" fill="white"/>
<path d="M191.269 30.1809C191.269 24.6639 195.67 20.2723 201.117 20.2723C206.565 20.2723 210.91 24.6639 210.91 30.1809C210.91 35.6979 206.535 40.0645 201.117 40.0645C195.7 40.0645 191.269 35.6729 191.269 30.1809ZM209.261 30.1809C209.261 25.5142 205.658 21.8329 201.117 21.8329C196.577 21.8329 192.918 25.5092 192.918 30.1809C192.918 34.8526 196.521 38.4739 201.117 38.4739C205.713 38.4739 209.261 34.7976 209.261 30.1809Z" fill="white"/>
<path d="M213.275 30.1809C213.275 24.6639 217.676 20.2723 223.123 20.2723C228.571 20.2723 232.916 24.6639 232.916 30.1809C232.916 35.6979 228.541 40.0645 223.123 40.0645C217.706 40.0645 213.275 35.6729 213.275 30.1809ZM231.267 30.1809C231.267 25.5142 227.664 21.8329 223.123 21.8329C218.583 21.8329 214.924 25.5092 214.924 30.1809C214.924 34.8526 218.528 38.4739 223.123 38.4739C227.719 38.4739 231.267 34.7976 231.267 30.1809Z" fill="white"/>
<path d="M250.377 30.1009C250.377 35.5629 247.019 39.7094 240.308 39.7094H236.264C236.018 39.7094 235.853 39.5443 235.853 39.2992V20.9076C235.853 20.6625 236.018 20.4974 236.264 20.4974H240.308C247.019 20.4974 250.377 24.6439 250.377 30.1059V30.1009ZM248.617 30.1009C248.617 25.1891 245.866 22.113 240.308 22.113H237.587V38.0888H240.308C245.866 38.0888 248.617 35.0127 248.617 30.1009Z" fill="white"/>
<path d="M103.796 43.9659V47.2571C103.796 47.5022 103.631 47.6673 103.385 47.6673H97.4514V50.9585H103.024C103.27 50.9585 103.435 51.1235 103.435 51.3686V54.6598C103.435 54.9049 103.27 55.07 103.024 55.07H97.4514V62.3326C97.4514 62.5777 97.286 62.7427 97.0404 62.7427H93.1664C92.9209 62.7427 92.7555 62.5777 92.7555 62.3326V43.9709C92.7555 43.7259 92.9209 43.5608 93.1664 43.5608H103.38C103.626 43.5608 103.791 43.7259 103.791 43.9709L103.796 43.9659Z" fill="white"/>
<path d="M118.35 59.0364V62.3276C118.35 62.5727 118.185 62.7377 117.939 62.7377H107.45C107.204 62.7377 107.039 62.5727 107.039 62.3276V43.9659C107.039 43.7208 107.204 43.5558 107.45 43.5558H117.914C118.159 43.5558 118.325 43.7208 118.325 43.9659V47.2571C118.325 47.5022 118.159 47.6673 117.914 47.6673H111.735V50.9585H117.528C117.774 50.9585 117.939 51.1235 117.939 51.3686V54.6598C117.939 54.9049 117.774 55.0699 117.528 55.0699H111.735V58.6312H117.939C118.185 58.6312 118.35 58.7963 118.35 59.0414V59.0364Z" fill="white"/>
<path d="M133.069 59.0364V62.3276C133.069 62.5727 132.904 62.7377 132.658 62.7377H122.169C121.923 62.7377 121.758 62.5727 121.758 62.3276V43.9659C121.758 43.7208 121.923 43.5558 122.169 43.5558H132.633C132.879 43.5558 133.044 43.7208 133.044 43.9659V47.2571C133.044 47.5022 132.879 47.6673 132.633 47.6673H126.454V50.9585H132.247C132.493 50.9585 132.658 51.1235 132.658 51.3686V54.6598C132.658 54.9049 132.493 55.0699 132.247 55.0699H126.454V58.6312H132.658C132.904 58.6312 133.069 58.7963 133.069 59.0414V59.0364Z" fill="white"/>
<path d="M147.212 59.0364V62.3276C147.212 62.5727 147.047 62.7377 146.801 62.7377H136.858C136.612 62.7377 136.447 62.5727 136.447 62.3276V43.9659C136.447 43.7208 136.612 43.5558 136.858 43.5558H140.732C140.977 43.5558 141.143 43.7208 141.143 43.9659V58.6262H146.801C147.047 58.6262 147.212 58.7913 147.212 59.0364Z" fill="white"/>
<path d="M172.446 57.2207C172.446 60.842 170.135 62.7377 165.184 62.7377H158.228C157.982 62.7377 157.817 62.5726 157.817 62.3276V43.9409C157.817 43.6958 157.982 43.5308 158.228 43.5308H165.159C168.842 43.5308 170.932 45.7266 170.932 48.5526C170.932 50.5833 169.829 52.0088 168.707 52.504C170.466 52.9992 172.446 54.6448 172.446 57.2257V57.2207ZM164.718 47.6422H162.518V50.8234H164.718C165.79 50.8234 166.587 50.3832 166.587 49.1778C166.587 47.9724 165.76 47.6422 164.718 47.6422ZM167.77 56.5905C167.77 55.135 166.617 54.6698 165.379 54.6698H162.518V58.6212H165.379C166.782 58.6212 167.77 57.961 167.77 56.5905Z" fill="white"/>
<path d="M186.358 59.0314V62.3225C186.358 62.5676 186.193 62.7327 185.947 62.7327H175.443C175.197 62.7327 175.032 62.5676 175.032 62.3225V43.9359C175.032 43.6908 175.197 43.5258 175.443 43.5258H185.922C186.167 43.5258 186.333 43.6908 186.333 43.9359V47.2271C186.333 47.4722 186.167 47.6372 185.922 47.6372H179.733V50.9284H185.536C185.782 50.9284 185.947 51.0935 185.947 51.3386V54.6298C185.947 54.8749 185.782 55.0399 185.536 55.0399H179.733V58.6062H185.947C186.193 58.6062 186.358 58.7713 186.358 59.0164V59.0314Z" fill="white"/>
<path d="M202.776 43.9359V47.2271C202.776 47.4722 202.611 47.6372 202.365 47.6372H198.321V62.3225C198.321 62.5676 198.155 62.7327 197.91 62.7327H194.031C193.785 62.7327 193.62 62.5676 193.62 62.3225V47.6372H189.575C189.33 47.6372 189.164 47.4722 189.164 47.2271V43.9359C189.164 43.6908 189.33 43.5258 189.575 43.5258H202.36C202.606 43.5258 202.771 43.6908 202.771 43.9359H202.776Z" fill="white"/>
<path d="M218.417 43.9359V47.2271C218.417 47.4722 218.252 47.6372 218.006 47.6372H213.962V62.3225C213.962 62.5676 213.797 62.7327 213.551 62.7327H209.672C209.427 62.7327 209.261 62.5676 209.261 62.3225V47.6372H205.217C204.971 47.6372 204.806 47.4722 204.806 47.2271V43.9359C204.806 43.6908 204.971 43.5258 205.217 43.5258H218.001C218.247 43.5258 218.412 43.6908 218.412 43.9359H218.417Z" fill="white"/>
<path d="M232.635 59.0314V62.3225C232.635 62.5676 232.47 62.7327 232.224 62.7327H221.72C221.474 62.7327 221.309 62.5676 221.309 62.3225V43.9359C221.309 43.6908 221.474 43.5258 221.72 43.5258H232.199C232.445 43.5258 232.61 43.6908 232.61 43.9359V47.2271C232.61 47.4722 232.445 47.6372 232.199 47.6372H226.01V50.9284H231.813C232.059 50.9284 232.224 51.0935 232.224 51.3386V54.6298C232.224 54.8749 232.059 55.0399 231.813 55.0399H226.01V58.6062H232.224C232.47 58.6062 232.635 58.7713 232.635 59.0164V59.0314Z" fill="white"/>
<path d="M249.901 62.7377H245.801C245.58 62.7377 245.415 62.6577 245.305 62.4626L241.456 56.4254H240.714V62.3276C240.714 62.5726 240.549 62.7377 240.303 62.7377H236.424C236.179 62.7377 236.013 62.5726 236.013 62.3276V43.9409C236.013 43.6958 236.179 43.5308 236.424 43.5308H242.418C247.119 43.5308 249.705 46.1667 249.705 49.9831C249.705 52.6991 248.412 54.8148 245.966 55.8002L250.176 62.2475C250.367 62.5476 250.231 62.7427 249.901 62.7427V62.7377ZM240.714 52.3089H242.338C243.656 52.3089 245.225 51.8138 245.225 49.9781C245.225 48.1424 243.656 47.6473 242.338 47.6473H240.714V52.3139V52.3089Z" fill="white"/>
<path d="M254 45.3764C254 46.6369 252.983 47.6622 251.72 47.6622C250.457 47.6622 249.429 46.6419 249.429 45.3764C249.429 44.1109 250.452 43.0906 251.72 43.0906C252.988 43.0906 254 44.1109 254 45.3764ZM253.559 45.3764C253.559 44.346 252.752 43.5157 251.72 43.5157C250.687 43.5157 249.86 44.346 249.86 45.3764C249.86 46.4068 250.687 47.2371 251.72 47.2371C252.752 47.2371 253.559 46.4068 253.559 45.3764ZM252.071 45.6965L252.777 46.4868C252.817 46.5368 252.802 46.5818 252.722 46.5818H252.426C252.386 46.5818 252.361 46.5668 252.336 46.5318L251.614 45.7065H251.088V46.5068C251.088 46.5468 251.048 46.5768 251.008 46.5768H250.778C250.737 46.5768 250.707 46.5468 250.707 46.5068V44.221C250.707 44.181 250.737 44.151 250.778 44.151H251.865C252.507 44.151 252.827 44.4711 252.827 44.9412C252.827 45.3314 252.577 45.6265 252.076 45.6915L252.071 45.6965ZM252.456 44.9462C252.456 44.6962 252.286 44.5311 251.87 44.5311H251.083V45.3464H251.87C252.286 45.3464 252.456 45.1563 252.456 44.9462Z" fill="white"/>
</g>
<defs>
<clipPath id="clip0_3874_1483">
<rect width="254" height="83" fill="white"/>
</clipPath>
</defs>
</svg>
